# xmcd
#
# Track frame offsets: 
#        150
#        13427
#        29265
#        39630
#        52397
#        64142
#        78380
#        92655
#        106527
#        123995
#        136867
#        152137
#        166412
#        178147
#        190310
#        200122
#        209880
#        224930
#
# Disc length: 3187 seconds
#
# Revision: 1
# Processed by: cddbd v1.5.2PL0 Copyright (c) Steve Scherf et al.
# Submitted via: ExactAudioCopyFreeDBPlugin 1.0
#
DISCID=1a0c7112
DTITLE=George Strait - Strait Out of the Box (Disk 4)
DYEAR=1995
DGENRE=Country
TTITLE0=I Just Can't Go On Dying Like This
TTITLE1=(That Don't Change) The Way I Feel About You
TTITLE2=I Don't Want To Talk It Over Anymore
TTITLE3=Unwound
TTITLE4=Blame It On Mexico
TTITLE5=Her Goodbye Hit Me In The Heart
TTITLE6=If You're Thinking You Want A Stranger (There's One Coming Hom
TTITLE6=e)
TTITLE7=Any Old Love Won't Do
TTITLE8=Fool Hearted Memory
TTITLE9=Marina Del Rey
TTITLE10=I Can't See Texas From Here
TTITLE11=Heartbroke
TTITLE12=What Would Your Memories Do
TTITLE13=Amarillo By Morning
TTITLE14=I Thought I Heard You Calling My Name
TTITLE15=A Fire I Can't Put Out
TTITLE16=You Look So Good In Love
TTITLE17=80 Proof Bottle of Tear Stopper
EXTD=
EXTT0=
EXTT1=
EXTT2=
EXTT3=
EXTT4=
EXTT5=
EXTT6=
EXTT7=
EXTT8=
EXTT9=
EXTT10=
EXTT11=
EXTT12=
EXTT13=
EXTT14=
EXTT15=
EXTT16=
EXTT17=
PLAYORDER=
